<?xml version="1.0" encoding="utf-8"?>
<!-- Generator: Adobe Illustrator 21.0.0, SVG Export Plug-In . SVG Version: 6.00 Build 0)  -->
<svg version="1.1" id="Layer_1" xmlns="http://www.w3.org/2000/svg" xmlns:xlink="http://www.w3.org/1999/xlink" x="0px" y="0px"
	 viewBox="0 0 31.7 32" style="enable-background:new 0 0 31.7 32;" xml:space="preserve">
<path d="M23.8,18.3L23.8,18.3l-4-2.3l4-2.3l4-2.3l4-2.3l-4-2.3l-4-2.3l-4-2.3h0l-4-2.3l-4,2.3l4,2.3l4,2.3l4,2.3l-4,2.3l-4-2.3
	l-4-2.3l-4,2.3l4,2.3h0l4,2.3l-4,2.3l-4,2.3l-4,2.3l-4,2.3l4,2.3l4,2.3l4,2.3l4,2.3l4-2.3l4-2.3h0l4-2.3l4-2.3l-4-2.3L23.8,18.3z
	 M19.8,25.1l-4,2.3l-4-2.3l-4-2.3l4-2.3l4-2.3l4,2.3l4,2.3L19.8,25.1z"/>
</svg>
