<svg xmlns="http://www.w3.org/2000/svg" xmlns:xlink="http://www.w3.org/1999/xlink" id="Layer_1" x="0" y="0" version="1.1" viewBox="0 0 31.7 32" xml:space="preserve" style="enable-background:new 0 0 31.7 32"><path d="M23.8,18.3L23.8,18.3l-4-2.3l4-2.3l4-2.3l4-2.3l-4-2.3l-4-2.3l-4-2.3h0l-4-2.3l-4,2.3l4,2.3l4,2.3l4,2.3l-4,2.3l-4-2.3	l-4-2.3l-4,2.3l4,2.3h0l4,2.3l-4,2.3l-4,2.3l-4,2.3l-4,2.3l4,2.3l4,2.3l4,2.3l4,2.3l4-2.3l4-2.3h0l4-2.3l4-2.3l-4-2.3L23.8,18.3z M19.8,25.1l-4,2.3l-4-2.3l-4-2.3l4-2.3l4-2.3l4,2.3l4,2.3L19.8,25.1z"/></svg>