<svg xmlns="http://www.w3.org/2000/svg" xmlns:xlink="http://www.w3.org/1999/xlink" id="Layer_1" x="0" y="0" version="1.1" viewBox="0 0 15.8 16" xml:space="preserve" style="enable-background:new 0 0 15.8 16"><path d="M11.9,9.1L11.9,9.1L9.9,8l2-1.1l2-1.1l2-1.1l-2-1.1l-2-1.1l-2-1.1h0L7.9,0l-2,1.1l2,1.1l2,1.1l2,1.1l-2,1.1l-2-1.1l-2-1.1	L4,4.6l2,1.1h0l2,1.1L5.9,8L4,9.1l-2,1.1l-2,1.1l2,1.1l2,1.1l2,1.1l2,1.1l2-1.1l2-1.1h0l2-1.1l2-1.1l-2-1.1L11.9,9.1z M9.9,12.6	l-2,1.1l-2-1.1l-2-1.1l2-1.1l2-1.1l2,1.1l2,1.1L9.9,12.6z"/></svg>