<?xml version="1.0" encoding="utf-8"?>
<!-- Generator: Adobe Illustrator 21.0.0, SVG Export Plug-In . SVG Version: 6.00 Build 0)  -->
<svg version="1.1" id="Layer_1" xmlns="http://www.w3.org/2000/svg" xmlns:xlink="http://www.w3.org/1999/xlink" x="0px" y="0px"
	 viewBox="0 0 15.8 16" style="enable-background:new 0 0 15.8 16;" xml:space="preserve">
<style type="text/css">
	.st0{fill:#FFFFFF;}
</style>
<path class="st0" d="M11.9,9.1L11.9,9.1L9.9,8l2-1.1l2-1.1l2-1.1l-2-1.1l-2-1.1l-2-1.1h0L7.9,0l-2,1.1l2,1.1l2,1.1l2,1.1l-2,1.1
	l-2-1.1l-2-1.1L4,4.6l2,1.1h0l2,1.1L5.9,8L4,9.1l-2,1.1l-2,1.1l2,1.1l2,1.1l2,1.1l2,1.1l2-1.1l2-1.1h0l2-1.1l2-1.1l-2-1.1L11.9,9.1z
	 M9.9,12.6l-2,1.1l-2-1.1l-2-1.1l2-1.1l2-1.1l2,1.1l2,1.1L9.9,12.6z"/>
</svg>
