<?xml version="1.0" encoding="utf-8"?>
<!-- Generator: Adobe Illustrator 21.0.0, SVG Export Plug-In . SVG Version: 6.00 Build 0)  -->
<svg version="1.1" id="Layer_1" xmlns="http://www.w3.org/2000/svg" xmlns:xlink="http://www.w3.org/1999/xlink" x="0px" y="0px"
	 viewBox="0 0 47.5 48" style="enable-background:new 0 0 47.5 48;" xml:space="preserve">
<style type="text/css">
	.st0{fill:#FFFFFF;}
</style>
<path class="st0" d="M35.6,27.4L35.6,27.4L29.7,24l5.9-3.4l5.9-3.4l5.9-3.4l-5.9-3.4l-5.9-3.4l-5.9-3.4h0L23.7,0l-5.9,3.4l5.9,3.4
	l5.9,3.4l5.9,3.4l-5.9,3.4l-5.9-3.4l-5.9-3.4l-5.9,3.4l5.9,3.4h0l5.9,3.4L17.8,24l-5.9,3.4l-5.9,3.4L0,34.3l5.9,3.4l5.9,3.4l5.9,3.4
	l5.9,3.4l5.9-3.4l5.9-3.4h0l5.9-3.4l5.9-3.4l-5.9-3.4L35.6,27.4z M29.7,37.7l-5.9,3.4l-5.9-3.4l-5.9-3.4l5.9-3.4l5.9-3.4l5.9,3.4
	l5.9,3.4L29.7,37.7z"/>
</svg>
