<svg xmlns="http://www.w3.org/2000/svg" xmlns:xlink="http://www.w3.org/1999/xlink" id="Layer_1" x="0" y="0" version="1.1" viewBox="0 0 197.9 198.9" xml:space="preserve" style="enable-background:new 0 0 197.9 198.9"><style type="text/css">.st0{fill:#fff}</style><path d="M148.5,114.3L148.5,114.3L123.7,100l24.8-14.3l24.7-14.3l24.8-14.3l-24.7-14.3l-24.8-14.3l-24.7-14.3h0L99,0	L74.2,14.3L99,28.6l24.7,14.3l24.7,14.3l-24.7,14.3L99,57.1L74.2,42.9L49.5,57.2l24.7,14.3h0L99,85.7L74.2,100l-24.8,14.3	l-24.7,14.3L0,142.9l24.7,14.3l24.7,14.3l24.7,14.3L99,200l24.7-14.3l24.7-14.3h0l24.7-14.3l24.7-14.3l-24.7-14.3L148.5,114.3z M123.7,157.1L99,171.4l-24.7-14.3l-24.7-14.3l24.7-14.3L99,114.3l24.8,14.3l24.7,14.3L123.7,157.1z" class="st0"/></svg>