<svg xmlns="http://www.w3.org/2000/svg" xmlns:xlink="http://www.w3.org/1999/xlink" id="Layer_1" x="0" y="0" version="1.1" viewBox="0 0 148.5 150" xml:space="preserve" style="enable-background:new 0 0 148.5 150"><style type="text/css">.st0{fill:#fff}</style><path d="M111.3,85.7L111.3,85.7L92.8,75l18.6-10.7l18.5-10.7l18.6-10.7l-18.6-10.7l-18.6-10.7L92.8,10.7h0L74.2,0	L55.7,10.7l18.6,10.7l18.6,10.7l18.6,10.7L92.8,53.6L74.2,42.9L55.7,32.1L37.1,42.9l18.5,10.7h0l18.6,10.7L55.7,75L37.1,85.7	L18.6,96.4L0,107.1l18.6,10.7l18.6,10.7l18.6,10.7L74.2,150l18.6-10.7l18.6-10.7h0l18.6-10.7l18.5-10.7l-18.6-10.7L111.3,85.7z M92.8,117.9l-18.6,10.7l-18.6-10.7l-18.6-10.7l18.6-10.7l18.6-10.7l18.6,10.7l18.6,10.7L92.8,117.9z" class="st0"/></svg>