<svg xmlns="http://www.w3.org/2000/svg" xmlns:xlink="http://www.w3.org/1999/xlink" id="Layer_1" x="0" y="0" version="1.1" viewBox="0 0 758.9 150" xml:space="preserve" style="enable-background:new 0 0 758.9 150"><style type="text/css">.st0{fill:#fff}</style><g><path d="M201,47h22.6c10.1,0,16.4,7.3,16.2,17.3c-0.2,4.3-1.7,8.8-5.3,11.2c3.7,2.6,5.9,6.9,5.9,11.4 c0,9.6-7.6,17.2-16.8,17.2H201V47z M212.4,69.9h6.9h3.3c3.3,0,5.3-2.6,5.3-5.7c0-3.2-2-5.7-5.3-5.7h-10.1V69.9z M212.4,92.7h6.9 h3.3c3.3,0,5.7-2.6,5.7-5.7c0-3.2-2.5-5.7-5.7-5.7h-10.1V92.7z" class="st0"/><path d="M250.2,84.3V47.1h11.4v37.1c0,12,18.5,12,18.5,0V47.1h11.3v37.2C291.4,111.4,250.2,111.4,250.2,84.3z" class="st0"/><path d="M315.4,47.1v45.6h18.1v11.4H304v-57H315.4z" class="st0"/><path d="M392,46.2h3.6v57.9H384l0.1-31.8l-14.6,15.3l-14.6-15.3v31.8h-11.6V46.2h3.7l22.5,25.1L392,46.2z" class="st0"/><path d="M427.4,45h1.2l24,59.1h-12.8l-2.3-6.1h-18.9l-2.2,6.1h-12.9L427.4,45z M433.2,87.3L428,72.5l-5.3,14.8H433.2z" class="st0"/><path d="M457.2,71.6h29v10.6h-29V71.6z" class="st0"/><path d="M508.2,58.5v11.4h14.5v11.4h-14.5v22.8h-11.4v-57h28.5v11.4H508.2z" class="st0"/><path d="M546.1,47.1v45.6h18.1v11.4h-29.5v-57H546.1z" class="st0"/><path d="M573.7,84.3V47.1h11.4v37.1c0,12,18.5,12,18.5,0V47.1h11.3v37.2C614.9,111.4,573.7,111.4,573.7,84.3z" class="st0"/><path d="M627.5,104.2v-57h28.6v11.4h-17.2v11.4h15v11.4h-15v11.4h18.1v11.4H627.5z" class="st0"/><path d="M679.2,104.2h-11.4V45.9h3l28.8,33.5V47.2h11.5v58.2h-3l-28.9-32.2V104.2z" class="st0"/><path d="M733.3,104.2V58.5h-14.2V47.2h39.8v11.3h-14.2v45.6H733.3z" class="st0"/></g><path d="M111.3,85.7L111.3,85.7L92.8,75l18.6-10.7l18.5-10.7l18.6-10.7l-18.6-10.7l-18.6-10.7L92.8,10.7h0L74.2,0	L55.7,10.7l18.6,10.7l18.6,10.7l18.6,10.7L92.8,53.6L74.2,42.9L55.7,32.1L37.1,42.9l18.5,10.7h0l18.6,10.7L55.7,75L37.1,85.7	L18.6,96.4L0,107.1l18.6,10.7l18.6,10.7l18.6,10.7L74.2,150l18.6-10.7l18.6-10.7h0l18.6-10.7l18.5-10.7l-18.6-10.7L111.3,85.7z M92.8,117.9l-18.6,10.7l-18.6-10.7l-18.6-10.7l18.6-10.7l18.6-10.7l18.6,10.7l18.6,10.7L92.8,117.9z" class="st0"/></svg>