<?xml version="1.0" encoding="utf-8"?>
<!-- Generator: Adobe Illustrator 21.0.0, SVG Export Plug-In . SVG Version: 6.00 Build 0)  -->
<svg version="1.1" id="Layer_1" xmlns="http://www.w3.org/2000/svg" xmlns:xlink="http://www.w3.org/1999/xlink" x="0px" y="0px"
	 viewBox="0 0 225 194.3" style="enable-background:new 0 0 225 194.3;" xml:space="preserve">
<style type="text/css">
	.st0{fill:#FFFFFF;}
</style>
<path class="st0" d="M141.6,68.6L141.6,68.6L126.7,60l14.9-8.6l14.8-8.6l14.9-8.6l-14.8-8.6l-14.9-8.6l-14.8-8.6h0L111.9,0L97,8.6
	l14.8,8.6l14.8,8.6l14.8,8.6l-14.8,8.6l-14.9-8.6L97,25.7l-14.9,8.6L97,42.9h0l14.8,8.6L97,60l-14.9,8.6l-14.8,8.6l-14.8,8.6
	l14.8,8.6l14.8,8.6l14.8,8.6l14.8,8.6l14.8-8.6l14.8-8.6h0l14.8-8.6l14.8-8.6l-14.8-8.6L141.6,68.6z M126.7,94.3l-14.8,8.6L97,94.3
	l-14.8-8.6L97,77.2l14.8-8.6l14.9,8.6l14.8,8.6L126.7,94.3z"/>
<g>
	<g>
		<path class="st0" d="M0,171.3h9.1c4.1,0,6.6,2.9,6.5,7c-0.1,1.7-0.7,3.5-2.1,4.5c1.5,1,2.4,2.8,2.4,4.6c0,3.9-3.1,6.9-6.8,6.9H0
			V171.3z M4.6,180.5h2.8h1.3c1.3,0,2.1-1.1,2.1-2.3c0-1.3-0.8-2.3-2.1-2.3H4.6V180.5z M4.6,189.7h2.8h1.3c1.3,0,2.3-1,2.3-2.3
			c0-1.3-1-2.3-2.3-2.3H4.6V189.7z"/>
		<path class="st0" d="M19.8,186.3v-15h4.6v15c0,4.8,7.5,4.8,7.5,0v-15h4.6v15C36.5,197.2,19.8,197.2,19.8,186.3z"/>
		<path class="st0" d="M46.2,171.3v18.4h7.3v4.6H41.6v-23H46.2z"/>
		<path class="st0" d="M77,170.9h1.4v23.4h-4.7l0-12.8l-5.9,6.2l-5.9-6.2v12.8h-4.7v-23.4h1.5L68,181L77,170.9z"/>
		<path class="st0" d="M91.3,170.4h0.5l9.7,23.8h-5.2l-0.9-2.5h-7.6l-0.9,2.5h-5.2L91.3,170.4z M93.6,187.5l-2.1-6l-2.2,6H93.6z"/>
		<path class="st0" d="M103.3,181.2H115v4.3h-11.7V181.2z"/>
		<path class="st0" d="M123.9,175.9v4.6h5.9v4.6h-5.9v9.2h-4.6v-23h11.5v4.6H123.9z"/>
		<path class="st0" d="M139.2,171.3v18.4h7.3v4.6h-11.9v-23H139.2z"/>
		<path class="st0" d="M150.3,186.3v-15h4.6v15c0,4.8,7.5,4.8,7.5,0v-15h4.6v15C166.9,197.2,150.3,197.2,150.3,186.3z"/>
		<path class="st0" d="M172,194.3v-23h11.5v4.6h-6.9v4.6h6v4.6h-6v4.6h7.3v4.6H172z"/>
		<path class="st0" d="M192.8,194.3h-4.6v-23.5h1.2l11.6,13.5v-13h4.6v23.5h-1.2l-11.6-13V194.3z"/>
		<path class="st0" d="M214.7,194.3v-18.4h-5.7v-4.6H225v4.6h-5.7v18.4H214.7z"/>
	</g>
</g>
</svg>
