<?xml version="1.0" encoding="utf-8"?>
<!-- Generator: Adobe Illustrator 21.0.0, SVG Export Plug-In . SVG Version: 6.00 Build 0)  -->
<svg version="1.1" id="Layer_1" xmlns="http://www.w3.org/2000/svg" xmlns:xlink="http://www.w3.org/1999/xlink" x="0px" y="0px"
	 viewBox="0 0 197.9 198.9" style="enable-background:new 0 0 197.9 198.9;" xml:space="preserve">
<style type="text/css">
	.st0{fill:#4180C6;}
</style>
<path class="st0" d="M148.5,114.3L148.5,114.3L123.7,100l24.8-14.3l24.7-14.3l24.8-14.3l-24.7-14.3l-24.8-14.3l-24.7-14.3h0L99,0
	L74.2,14.3L99,28.6l24.7,14.3l24.7,14.3l-24.7,14.3L99,57.1L74.2,42.9L49.5,57.2l24.7,14.3h0L99,85.7L74.2,100l-24.8,14.3
	l-24.7,14.3L0,142.9l24.7,14.3l24.7,14.3l24.7,14.3L99,200l24.7-14.3l24.7-14.3h0l24.7-14.3l24.7-14.3l-24.7-14.3L148.5,114.3z
	 M123.7,157.1L99,171.4l-24.7-14.3l-24.7-14.3l24.7-14.3L99,114.3l24.8,14.3l24.7,14.3L123.7,157.1z"/>
</svg>
